<svg xmlns="http://www.w3.org/2000/svg" viewBox="0 0 480 96" width="480" height="96" role="img" aria-labelledby="wm-title">
  <title id="wm-title">Tabularium</title>
  <style>
    .fg { fill: #0f172a; }
    @media (prefers-color-scheme: dark) {
      .fg { fill: #f8fafc; }
    }
  </style>
  <g transform="translate(8 8)" color="#6366f1" fill="currentColor">
    <rect x="6" y="64" width="68" height="18" rx="4" fill-opacity="0.22"/>
    <rect x="10" y="46" width="60" height="18" rx="4" fill-opacity="0.5"/>
    <path d="M18 6 h44 a6 6 0 0 1 6 6 v4 h-18 a4 4 0 0 0 -4 4 v22 h-28 a6 6 0 0 1 -6 -6 v-24 a6 6 0 0 1 6 -6 z"/>
    <rect x="56" y="20" width="16" height="22" rx="3"/>
    <rect x="24" y="14" width="28" height="4" rx="1.5" fill="#ffffff" fill-opacity="0.95"/>
    <rect x="24" y="22" width="20" height="3" rx="1" fill="#ffffff" fill-opacity="0.75"/>
    <rect x="24" y="28" width="24" height="3" rx="1" fill="#ffffff" fill-opacity="0.75"/>
  </g>
  <text class="fg" x="112" y="62" font-family="-apple-system, BlinkMacSystemFont, 'Segoe UI', Roboto, 'Helvetica Neue', Arial, sans-serif" font-size="42" font-weight="600" letter-spacing="-0.5">Tabularium</text>
</svg>
