<svg xmlns="http://www.w3.org/2000/svg" viewBox="0 0 1200 630" width="1200" height="630" role="img" aria-labelledby="banner-title">
  <title id="banner-title">Tabularium — self-hosted plugin registry</title>
  <defs>
    <pattern id="cards" x="0" y="0" width="180" height="160" patternUnits="userSpaceOnUse">
      <rect x="20" y="20" width="120" height="80" rx="8" fill="#6366f1" fill-opacity="0.06"/>
      <rect x="30" y="40" width="120" height="80" rx="8" fill="#6366f1" fill-opacity="0.04"/>
    </pattern>
  </defs>
  <rect width="1200" height="630" fill="#f8fafc"/>
  <rect width="1200" height="630" fill="url(#cards)"/>
  <g transform="translate(280 220)" color="#6366f1" fill="currentColor">
    <rect x="12" y="128" width="136" height="36" rx="8" fill-opacity="0.22"/>
    <rect x="20" y="92" width="120" height="36" rx="8" fill-opacity="0.5"/>
    <path d="M36 12 h88 a12 12 0 0 1 12 12 v8 h-36 a8 8 0 0 0 -8 8 v44 h-56 a12 12 0 0 1 -12 -12 v-48 a12 12 0 0 1 12 -12 z"/>
    <rect x="112" y="40" width="32" height="44" rx="6"/>
    <rect x="48" y="28" width="56" height="8" rx="3" fill="#ffffff" fill-opacity="0.95"/>
    <rect x="48" y="44" width="40" height="6" rx="2" fill="#ffffff" fill-opacity="0.75"/>
    <rect x="48" y="56" width="48" height="6" rx="2" fill="#ffffff" fill-opacity="0.75"/>
  </g>
  <text x="460" y="316" font-family="-apple-system, BlinkMacSystemFont, 'Segoe UI', Roboto, 'Helvetica Neue', Arial, sans-serif" font-size="96" font-weight="700" fill="#0f172a" letter-spacing="-2">Tabularium</text>
  <text x="464" y="372" font-family="-apple-system, BlinkMacSystemFont, 'Segoe UI', Roboto, 'Helvetica Neue', Arial, sans-serif" font-size="34" font-weight="400" fill="#475569">Self-hosted plugin registry</text>
  <rect x="460" y="396" width="64" height="4" rx="2" fill="#6366f1"/>
</svg>
